<?xml version="1.0" standalone="no"?>
<svg viewBox="0 0 1024 1024" xmlns="http://www.w3.org/2000/svg">
  <path d="M512 1023.999431a510.406544 510.406544 0 0 0 362.040487-149.958944A510.406544 510.406544 0 0 0 1023.999431 512a510.406544 510.406544 0 0 0-149.958944-362.040487A510.406544 510.406544 0 0 0 512 0.000569a510.406544 510.406544 0 0 0-362.040487 149.958944A510.406544 510.406544 0 0 0 0.000569 512a510.406544 510.406544 0 0 0 149.958944 362.040487A510.406544 510.406544 0 0 0 512 1023.999431z" fill="#00CC52"></path>
  <path d="M455.111174 602.225678L324.665097 471.7796a56.888826 56.888826 0 0 0-80.440799 80.4408l170.666477 170.666477a56.888826 56.888826 0 0 0 80.440799 0l312.888541-312.888541a56.888826 56.888826 0 1 0-80.440799-80.4408L455.111174 602.225678z" fill="#FFFFFF"></path>
</svg> 