<?xml version="1.0" standalone="no"?>
<svg viewBox="0 0 1024 1024" xmlns="http://www.w3.org/2000/svg">
  <path d="M488.9 295v218.8H270.1c-21.1 0-37.7 16.6-37.7 37.7s16.6 37.7 37.7 37.7h256.5c21.1 0 37.7-16.6 37.7-37.7V295c0-21.1-16.6-37.7-37.7-37.7s-37.7 16.6-37.7 37.7z m0 0" fill="#515151"></path>
  <path d="M637.3 862.9c-45.9 19-95.1 28.7-144.8 28.7-209.6 0-379.6-170-379.6-379.6 0-209.6 170-379.6 379.6-379.6s379.6 170 379.6 379.6c0 17-1.2 33.7-3.4 50.1 24.8 6.7 48.1 18.1 68.7 33.4 5.1-27.5 7.7-55.5 7.7-83.5 0-250-202.6-452.6-452.6-452.6S39.9 262 39.9 512c0 250 202.6 452.6 452.6 452.6 69.7 0 135.7-15.8 194.7-43.9-20.1-16-37-35.6-49.9-57.8z m0 0" fill="#515151"></path>
  <path d="M816 593.5c-92.7 0-167.8 75.1-167.8 167.8 0 92.7 75.1 167.8 167.8 167.8 92.7 0 167.8-75.1 167.8-167.8-0.1-92.7-75.2-167.8-167.8-167.8z m25.5 289.6c-3.1 5.2-6.7 9-10.9 11.4-4.1 2.4-8.8 3.4-14 3.1-5.5 0-10.5-1.2-14.8-3.6-4.3-2.4-7.7-6-10.1-10.6-2.4-4.6-3.6-9.6-3.6-14.8 0-4.8 1.2-9.5 3.6-14 2.3-4.4 5.9-7.9 10.4-10.1 4.5-2.3 9.5-3.6 14.5-3.9 5.2 0 9.8 1.2 14 3.6 4.1 2.4 7.6 6 10.4 10.6 2.8 4.7 4.2 9.3 4.4 14 0.2 4.7-1.1 9.5-3.9 14.3z m8.2-206.2l-16.3 125.4c-0.8 4.2-2.6 8.2-5.3 12.2-2.7 4-6.8 5.7-12.2 5.3-4.6 0-8.3-1.8-11.3-5.3-2.9-3.4-4.6-7.7-5-12.2L784 676.9c-1.3-6.7-1.1-12.5 0.6-17.5 1.7-5 5.2-9.7 10.6-14.1 5.4-4.4 12.3-6.8 20.6-7.2 7.3 0 14.5 2.1 20.6 6.3 6.2 4.2 10.2 9.1 11.9 14.7 1.8 5.6 2.2 11.5 1.4 17.8z m0 0" fill="#515151"></path>
</svg> 