<?xml version="1.0" standalone="no"?>
<svg viewBox="0 0 1024 1024" xmlns="http://www.w3.org/2000/svg">
  <path d="M556.4416 231.2192a56.7296 56.7296 0 0 0-44.032-20.48 55.7056 55.7056 0 0 0-43.2128 20.48 71.4752 71.4752 0 0 0-18.6368 48.5376v225.28a69.2224 69.2224 0 0 0 18.6368 47.9232 69.8368 69.8368 0 0 0 12.9024 10.8544l159.3344 129.2288a64.1024 64.1024 0 0 0 46.6944 14.7456 58.1632 58.1632 0 0 0 42.5984-22.1184 56.9344 56.9344 0 0 0 12.288-45.4656 65.1264 65.1264 0 0 0-24.1664-42.5984L573.44 480.0512v-200.2944a71.4752 71.4752 0 0 0-16.9984-48.5376zM852.992 723.1488a57.7536 57.7536 0 1 0 57.5488 57.5488 57.5488 57.5488 0 0 0-57.5488-57.5488z" fill="#f4ea2a"></path>
  <path d="M985.088 647.168v-2.2528A491.52 491.52 0 1 0 512 1003.52a489.472 489.472 0 0 0 251.904-69.4272 57.5488 57.5488 0 0 0-32.5632-105.0624 55.7056 55.7056 0 0 0-28.8768 7.9872A376.2176 376.2176 0 1 1 888.832 512a379.0848 379.0848 0 0 1-15.9744 108.544 61.44 61.44 0 0 0-1.4336 12.4928 57.5488 57.5488 0 0 0 111.8208 19.2512c0.8192-1.024 1.2288-3.072 1.8432-5.12z" fill="#f4ea2a"></path>
</svg> 