<?xml version="1.0" standalone="no"?>
<svg viewBox="0 0 1024 1024" xmlns="http://www.w3.org/2000/svg">
  <path d="M506.733352 0a506.733352 506.733352 0 0 1 470.16195 696.100074l-58.514244-94.939361a422.253413 422.253413 0 1 0-526.116195 312.173492c-9.801136 20.479985-17.188559 48.347394-6.948567 85.430796A506.733352 506.733352 0 0 1 506.733352 0z" fill="#d81e06"></path>
  <path d="M778.970872 515.144775a57.051388 57.051388 0 0 1 18.943987 19.382843l238.957543 401.480856c10.605707 17.846844 10.971421 40.228543 0.950857 58.514244a56.393103 56.393103 0 0 1-49.371394 29.476551H510.536778a56.393103 56.393103 0 0 1-49.371393-29.549694 59.026244 59.026244 0 0 1 1.023999-58.514244l238.957544-401.407713a56.685674 56.685674 0 0 1 34.96226-26.185124 55.588532 55.588532 0 0 1 42.861684 6.802281z m-29.47655 359.935743a24.575982 24.575982 0 0 0-24.210269 24.868553c0 13.677705 10.825135 24.795411 24.210269 24.795411a24.137126 24.137126 0 0 0 21.065128-12.434277 25.30741 25.30741 0 0 0 0-24.79541 24.137126 24.137126 0 0 0-21.065128-12.434277z m0-223.304984a24.575982 24.575982 0 0 0-24.210269 24.868554v124.050197c0 13.677705 10.825135 24.795411 24.210269 24.795411a24.575982 24.575982 0 0 0 24.283411-24.868554V676.570945a24.575982 24.575982 0 0 0-24.283411-24.795411zM538.331044 253.366676a42.203398 42.203398 0 0 0-42.203398 42.203399v211.163277H285.037511a42.203398 42.203398 0 0 0 0 84.406797H538.331044a42.203398 42.203398 0 0 0 42.203398-42.203398V295.570075a42.203398 42.203398 0 0 0-42.203398-42.203399z" fill="#d81e06"></path>
</svg> 